<svg width="100" height="50" viewBox="0 0 100 50" fill="none" xmlns="http://www.w3.org/2000/svg">
<path d="M96.1537 0H53.846C52.2529 0 50.9614 1.34315 50.9614 3V47C50.9614 48.6569 52.2529 50 53.846 50H96.1537C97.7469 50 99.0384 48.6569 99.0384 47V3C99.0384 1.34315 97.7469 0 96.1537 0Z" fill="white"/>
<path d="M45.1923 0H2.88462C1.29149 0 0 1.34315 0 3V47C0 48.6569 1.29149 50 2.88462 50H45.1923C46.7854 50 48.0769 48.6569 48.0769 47V3C48.0769 1.34315 46.7854 0 45.1923 0Z" fill="white"/>
<path d="M85.2486 12.4062V38H81.9695L69.5803 18.2598V38H66.3184V12.4062H69.5803L82.0203 32.1992V12.4062H85.2486Z" fill="black"/>
<path d="M16.677 38C20.5539 38 21.8001 35.48 21.8001 32.456V29.468H25.6078V32.456C25.6078 35.48 26.8539 38 30.7309 38C33.9501 38 36.027 35.876 36.027 32.564C36.027 29.072 34.0193 27.02 30.0732 27.02H28.0309V23.06H30.0732C34.0193 23.06 36.027 21.008 36.027 17.516C36.027 14.204 33.9501 12.08 30.7309 12.08C26.8539 12.08 25.6078 14.6 25.6078 17.624V20.612H21.8001V17.624C21.8001 14.6 20.5539 12.08 16.677 12.08C13.4578 12.08 11.3809 14.204 11.3809 17.516C11.3809 21.008 13.3886 23.06 17.3347 23.06H19.377V27.02H17.3347C13.3886 27.02 11.3809 29.072 11.3809 32.564C11.3809 35.876 13.4578 38 16.677 38ZM28.0309 17.552C28.0309 15.716 28.9309 14.564 30.7309 14.564C32.3578 14.564 33.5693 15.392 33.5693 17.516C33.5693 19.568 32.5309 20.612 30.0732 20.612H28.0309V17.552ZM17.3347 20.612C14.877 20.612 13.8386 19.568 13.8386 17.516C13.8386 15.392 15.0501 14.564 16.677 14.564C18.477 14.564 19.377 15.716 19.377 17.552V20.612H17.3347ZM21.8001 27.02V23.06H25.6078V27.02H21.8001ZM16.677 35.516C15.0501 35.516 13.8386 34.688 13.8386 32.564C13.8386 30.512 14.877 29.468 17.3347 29.468H19.377V32.528C19.377 34.364 18.477 35.516 16.677 35.516ZM28.0309 32.528V29.468H30.0732C32.5309 29.468 33.5693 30.512 33.5693 32.564C33.5693 34.688 32.3578 35.516 30.7309 35.516C28.9309 35.516 28.0309 34.364 28.0309 32.528Z" fill="black"/>
<path d="M60.5768 24H38.4614V27H60.5768V24Z" fill="black"/>
</svg>
