<svg id="eQgYx2IovqT1" xmlns="http://www.w3.org/2000/svg" xmlns:xlink="http://www.w3.org/1999/xlink" viewBox="0 0 210 217" shape-rendering="geometricPrecision" text-rendering="geometricPrecision"><style><![CDATA[#eQgYx2IovqT2_to {animation: eQgYx2IovqT2_to__to 7100ms linear infinite normal forwards}@keyframes eQgYx2IovqT2_to__to { 0% {offset-distance: 0%} 14.084507% {offset-distance: 14.94512%} 30.985915% {offset-distance: 34.482854%} 45.070423% {offset-distance: 49.427308%} 49.295775% {offset-distance: 49.427308%} 63.380282% {offset-distance: 64.231933%} 63.521127% {offset-distance: 64.629822%} 80.28169% {offset-distance: 84.601154%} 80.422535% {offset-distance: 84.96178%} 95.774648% {offset-distance: 99.770826%} 95.915493% {offset-distance: 99.926836%} 99.859155% {offset-distance: 99.926836%} 100% {offset-distance: 100%}} #eQgYx2IovqT2_ts {animation: eQgYx2IovqT2_ts__ts 7100ms linear infinite normal forwards}@keyframes eQgYx2IovqT2_ts__ts { 0% {transform: scale(1,1)} 14.084507% {transform: scale(1,0.5)} 30.985915% {transform: scale(1,0.5)} 45.070423% {transform: scale(1,1)} 49.295775% {transform: scale(1,1)} 63.521127% {transform: scale(1,0.5)} 80.422535% {transform: scale(1,0.5)} 95.774648% {transform: scale(1,1)} 99.859155% {transform: scale(1,1)} 100% {transform: scale(1,1)}} #eQgYx2IovqT3_to {animation: eQgYx2IovqT3_to__to 7100ms linear infinite normal forwards}@keyframes eQgYx2IovqT3_to__to { 0% {transform: translate(167px,189.953003px)} 14.084507% {transform: translate(167px,139.5px)} 30.985915% {transform: translate(133.0001px,139.5px)} 45.070423% {transform: translate(132.933476px,189.27872px)} 49.014085% {transform: translate(132.933476px,189.27872px)} 63.239437% {transform: translate(133.0001px,139.5px)} 80.140845% {transform: translate(167px,139.5px)} 95.633803% {transform: translate(167px,189.953003px)} 99.859155% {transform: translate(167px,189.953003px)} 100% {transform: translate(167px,189.953003px)}} #eQgYx2IovqT4_tr {animation: eQgYx2IovqT4_tr__tr 7100ms linear infinite normal forwards}@keyframes eQgYx2IovqT4_tr__tr { 0% {transform: translate(167.066628px,170.453px) rotate(0deg)} 7.042254% {transform: translate(167.066628px,170.453px) rotate(5deg)} 14.084507% {transform: translate(167.066628px,170.453px) rotate(0deg)} 28.169014% {transform: translate(167.066628px,170.453px) rotate(-5deg)} 35.211268% {transform: translate(167.066628px,170.453px) rotate(3deg)} 42.253521% {transform: translate(167.066628px,170.453px) rotate(0deg)} 45.070423% {transform: translate(167.066628px,170.453px) rotate(0deg)} 49.15493% {transform: translate(167.066628px,170.453px) rotate(0deg)} 56.338028% {transform: translate(167.066628px,170.453px) rotate(5deg)} 63.380282% {transform: translate(167.066628px,170.453px) rotate(0deg)} 77.464789% {transform: translate(167.066628px,170.453px) rotate(5deg)} 84.507042% {transform: translate(167.066628px,170.453px) rotate(-3deg)} 92.957746% {transform: translate(167.066628px,170.453px) rotate(0deg)} 95.774648% {transform: translate(167.066628px,170.453px) rotate(0deg)} 100% {transform: translate(167.066628px,170.453px) rotate(0deg)}}]]></style><defs><linearGradient id="eQgYx2IovqT7-fill" x1="131" y1="200.5" x2="203" y2="200.5" spreadMethod="pad" gradientUnits="userSpaceOnUse" gradientTransform="translate(0 0)"><stop id="eQgYx2IovqT7-fill-0" offset="0%" stop-color="#f41ce4"/><stop id="eQgYx2IovqT7-fill-1" offset="100%" stop-color="#d3adea"/></linearGradient><linearGradient id="eQgYx2IovqT9-fill" x1="127" y1="210.453" x2="207" y2="210.453" spreadMethod="pad" gradientUnits="userSpaceOnUse" gradientTransform="translate(0 0)"><stop id="eQgYx2IovqT9-fill-0" offset="0%" stop-color="#4dc387"/><stop id="eQgYx2IovqT9-fill-1" offset="100%" stop-color="#c8da2c"/></linearGradient></defs><g id="eQgYx2IovqT2_to" style="offset-path:path('M166.621138,112.369003L166.38,86.836571L133,86.836571L133,112.369003L133,112.369003Q132.379487,89.905157,133,87.089367Q132.38008,86.934765,132.3801,86.836571Q164.204907,86.590434,166.5,86.590434Q165.858844,86.590434,166.38,86.836571Q166.375531,109.657441,166.5,112.13689Q166.375015,112.292913,166.375,112.369003L166.375,112.369003L166.5,112.369003');offset-rotate:0deg"><g id="eQgYx2IovqT2_ts" transform="scale(1,1)"><path d="M166,62l.485293,104.105457" transform="translate(-166.375,-112.369003)" fill="none" stroke="#6c757d" stroke-width="2"/></g></g><g id="eQgYx2IovqT3_to" transform="translate(167,189.953003)"><g transform="translate(-167,-189.953003)"><g id="eQgYx2IovqT4_tr" transform="translate(167.066628,170.453) rotate(0)"><g transform="translate(-167.066628,-170.453)"><path d="M134.5,196.731l32.5-23.5" transform="translate(.066628 0)" fill="none" stroke="#6c757d" stroke-width="2"/><path d="M201.5,198l-35.037-25.145" transform="translate(.066628 0)" fill="none" stroke="#6c757d" stroke-width="2"/><path d="M131,205v-9h72v9h-72Z" transform="translate(.066628 0)" fill="url(#eQgYx2IovqT7-fill)"/><line x1="167" y1="170.453" x2="167" y2="173.453" transform="translate(.066628 0)" fill="none" stroke="#6c757d" stroke-width="2"/><path d="M127,216.453v-12h80v12h-80Z" transform="translate(.066628 0)" fill="url(#eQgYx2IovqT9-fill)"/></g></g><path d="M162.256,170.453l-1.088-7h11.664l-1.088,7h-9.488Z" fill="#ffac30" stroke="#ffac30" stroke-width="2"/></g></g><path d="M17,45.7217L53.5,11.7689" fill="none" stroke="#6c757d" stroke-width="2" stroke-linecap="round"/><path d="M32,196.725h49c2.7614,0,5,2.238,5,5v13h-59v-13c0-2.762,2.2386-5,5-5Z" fill="none" stroke="#ffac30" stroke-width="2"/><path d="M60.0002,11.665L206,44.165" fill="none" stroke="#6c757d" stroke-width="2" stroke-linecap="round"/><path d="M45,45.2689h22v151.0001h-22v-151.0001Z" fill="none" stroke="#ffac30" stroke-width="2"/><path d="M17,61.2689v-16h189v16h-189Z" fill="none" stroke="#ffac30" stroke-width="2"/><rect width="16" height="23" rx="2" ry="2" transform="translate(1 41.665)" fill="none" stroke="#ffac30" stroke-width="2"/><path d="M53.4545,11.2689h6.3953l6.926,34h-21.5065l8.1852-34Z" fill="none" stroke="#ffac30" stroke-width="2"/><rect width="16" height="22" rx="0" ry="0" transform="matrix(0-1 1 0 45 61.269)" fill="none" stroke="#ffac30" stroke-width="2"/><path d="M77.3321,45.9841c.0789-.1217.2569-.1217.3358,0l9.5914,14.8071c.0862.1331-.0093.3088-.1679.3088h-19.1828c-.1586,0-.2541-.1757-.1679-.3088l9.5914-14.8071Z" fill="none" stroke="#ffac30" stroke-width="2"/><path d="M97.8343,45.9701c.0793-.1173.2521-.1173.3314,0L108.181,60.788c.09.1328-.005.312-.165.312h-20.0317c-.1603,0-.2555-.1792-.1657-.312L97.8343,45.9701Z" fill="none" stroke="#ffac30" stroke-width="2"/><path d="M118.332,45.9841c.079-.1217.257-.1217.336,0l9.591,14.8071c.087.1331-.009.3088-.168.3088h-19.182c-.159,0-.255-.1757-.168-.3088l9.591-14.8071Z" fill="none" stroke="#ffac30" stroke-width="2"/><path d="M138.332,45.9841c.079-.1217.257-.1217.336,0l9.591,14.8071c.087.1331-.009.3088-.168.3088h-19.182c-.159,0-.255-.1757-.168-.3088l9.591-14.8071Z" fill="none" stroke="#ffac30" stroke-width="2"/><path d="M158.332,45.9841c.079-.1217.257-.1217.336,0l9.591,14.8071c.087.1331-.009.3088-.168.3088h-19.182c-.159,0-.255-.1757-.168-.3088l9.591-14.8071Z" fill="none" stroke="#ffac30" stroke-width="2"/><path d="M178.332,45.9809c.079-.1217.257-.1217.336,0l9.591,14.8071c.087.1331-.009.3087-.168.3087h-19.182c-.159,0-.255-.1756-.168-.3087l9.591-14.8071Z" fill="none" stroke="#ffac30" stroke-width="2"/><path d="M196.827,46.465c.077-.1333.269-.1333.346,0l8.314,14.4c.077.1334-.019.3-.173.3h-16.628c-.154,0-.25-.1666-.173-.3l8.314-14.4Z" fill="none" stroke="#ffac30" stroke-width="2"/><path d="M45.3431,184.178c-.144-.075-.144-.281,0-.356l21.115-10.929c.1331-.069.2919.027.2919.177v21.86c0,.15-.1588.246-.2919.177l-21.115-10.929Z" fill="none" stroke="#ffac30" stroke-width="2"/><path d="M45.3431,161.178c-.144-.075-.144-.281,0-.356l21.115-10.929c.1331-.069.2919.027.2919.177v21.86c0,.15-.1588.246-.2919.177l-21.115-10.929Z" fill="none" stroke="#ffac30" stroke-width="2"/><path d="M45.3431,139.178c-.144-.075-.144-.281,0-.356l21.115-10.929c.1331-.069.2919.027.2919.177v21.86c0,.15-.1588.246-.2919.177l-21.115-10.929Z" fill="none" stroke="#ffac30" stroke-width="2"/><path d="M45.3431,116.178c-.144-.075-.144-.281,0-.356l21.115-10.929c.1331-.069.2919.027.2919.177v21.86c0,.15-.1588.246-.2919.177l-21.115-10.929Z" fill="none" stroke="#ffac30" stroke-width="2"/><path d="M45.3431,93.1776c-.144-.0746-.144-.2806,0-.3552l21.115-10.9296c.1331-.0689.2919.0277.2919.1776v21.8596c0,.15-.1588.246-.2919.177L45.3431,93.1776Z" fill="none" stroke="#ffac30" stroke-width="2"/><path d="M45.3971,71.6818c-.1556-.0712-.1556-.2924,0-.3636l21.0696-9.6478c.1325-.0606.2833.0362.2833.1819v19.2954c0,.1457-.1508.2425-.2833.1819L45.3971,71.6818Z" fill="none" stroke="#ffac30" stroke-width="2"/></svg>